# xmcd CD database file
#
# Track frame offsets:
#	150
#	42469
#	89729
#	118247
#	143472
#	172547
#	195931
#	218412
#	241274
#	262221
#	285070
#
# Disc length: 4253 seconds
#
# Revision: 0
# Processed by: cddbd v1.5.1PL2 Copyright (c) Steve Scherf et al.
# Submitted via: CDex 1.51
#
DISCID=8f109b0b
DTITLE=Casseopaya - The 1st Labelcompilation
DYEAR=1997
DGENRE=New Age
TTITLE0=01. N-Son-X - All Bitches (Commander Tom Rmx) 
TTITLE1=02. Casseopaya - Carma In An Ocean Of Joy (DJ Misjah Rmx)  
TTITLE2=03. Logique - Vuture Shoque 
TTITLE3=04. N-Son-X - Humanoid  
TTITLE4=05. Remon Petrick - Technosized 
TTITLE5=06. Casseopaya - Move Your Body (Yves DeRuyter Rmx) 
TTITLE6=07. Turpentine - Soft Vice 
TTITLE7=08. N-Son-X - Wicked Plastic 
TTITLE8=09. Casseopaya - You Make Me Happy 
TTITLE9=10. Dindi's Khan - Hypnotic Vibes 
TTITLE10=11. Elexir Vitae - Jazzzy H 
EXTD=YEAR: 1997
EXTT0=
EXTT1=
EXTT2=
EXTT3=
EXTT4=
EXTT5=
EXTT6=
EXTT7=
EXTT8=
EXTT9=
EXTT10=
PLAYORDER=
